<mxfile host="Electron" agent="Mozilla/5.0 (Windows NT 10.0; Win64; x64) AppleWebKit/537.36 (KHTML, like Gecko) draw.io/26.2.2 Chrome/134.0.6998.178 Electron/35.1.2 Safari/537.36" version="26.2.2">
  <diagram name="Page-1" id="VTCqxvQxYiY8ikGuOwAo">
    <mxGraphModel dx="1108" dy="1079" grid="1" gridSize="10" guides="1" tooltips="1" connect="1" arrows="1" fold="1" page="0" pageScale="1" pageWidth="850" pageHeight="1100" background="none" math="0" shadow="0">
      <root>
        <mxCell id="0" />
        <mxCell id="1" parent="0" />
        <mxCell id="BmMyXMfouH3AsFZ2RmhQ-73" value="&lt;p style=&quot;margin:0px;margin-top:4px;text-align:center;&quot;&gt;&lt;b&gt;Producer&lt;/b&gt;&lt;/p&gt;" style="verticalAlign=top;align=left;overflow=fill;html=1;whiteSpace=wrap;" vertex="1" parent="1">
          <mxGeometry x="150" y="40" width="220" height="480" as="geometry" />
        </mxCell>
        <mxCell id="BmMyXMfouH3AsFZ2RmhQ-72" value="&lt;p style=&quot;margin:0px;margin-top:4px;text-align:center;&quot;&gt;&lt;b&gt;Queue Management&lt;/b&gt;&lt;/p&gt;" style="verticalAlign=top;align=left;overflow=fill;html=1;whiteSpace=wrap;" vertex="1" parent="1">
          <mxGeometry x="370" y="40" width="220" height="480" as="geometry" />
        </mxCell>
        <mxCell id="BmMyXMfouH3AsFZ2RmhQ-40" value="&lt;p style=&quot;margin:0px;margin-top:4px;text-align:center;text-decoration:underline;&quot;&gt;&lt;b&gt;Consumer&lt;/b&gt;&lt;/p&gt;" style="verticalAlign=top;align=left;overflow=fill;html=1;whiteSpace=wrap;" vertex="1" parent="1">
          <mxGeometry x="590" y="40" width="220" height="480" as="geometry" />
        </mxCell>
        <mxCell id="BmMyXMfouH3AsFZ2RmhQ-41" value="&lt;p style=&quot;margin:0px;margin-top:4px;text-align:center;text-decoration:underline;&quot;&gt;&lt;b&gt;Background Thread (Monitor)&lt;/b&gt;&lt;/p&gt;" style="verticalAlign=top;align=left;overflow=fill;html=1;whiteSpace=wrap;" vertex="1" parent="1">
          <mxGeometry x="810" y="40" width="220" height="480" as="geometry" />
        </mxCell>
        <mxCell id="BmMyXMfouH3AsFZ2RmhQ-46" style="edgeStyle=orthogonalEdgeStyle;rounded=0;orthogonalLoop=1;jettySize=auto;html=1;exitX=1;exitY=0.5;exitDx=0;exitDy=0;entryX=0.444;entryY=-0.002;entryDx=0;entryDy=0;entryPerimeter=0;" edge="1" parent="1" source="BmMyXMfouH3AsFZ2RmhQ-44" target="BmMyXMfouH3AsFZ2RmhQ-102">
          <mxGeometry relative="1" as="geometry" />
        </mxCell>
        <mxCell id="BmMyXMfouH3AsFZ2RmhQ-44" value="Start" style="ellipse;whiteSpace=wrap;html=1;aspect=fixed;" vertex="1" parent="1">
          <mxGeometry x="160" y="47.5" width="40" height="40" as="geometry" />
        </mxCell>
        <mxCell id="BmMyXMfouH3AsFZ2RmhQ-94" style="edgeStyle=orthogonalEdgeStyle;rounded=0;orthogonalLoop=1;jettySize=auto;html=1;exitX=0.5;exitY=1;exitDx=0;exitDy=0;entryX=0.5;entryY=0;entryDx=0;entryDy=0;" edge="1" parent="1" source="BmMyXMfouH3AsFZ2RmhQ-45" target="BmMyXMfouH3AsFZ2RmhQ-93">
          <mxGeometry relative="1" as="geometry" />
        </mxCell>
        <mxCell id="BmMyXMfouH3AsFZ2RmhQ-45" value="Generate N Tasks" style="rounded=1;whiteSpace=wrap;html=1;" vertex="1" parent="1">
          <mxGeometry x="245" y="151" width="80" height="30" as="geometry" />
        </mxCell>
        <mxCell id="BmMyXMfouH3AsFZ2RmhQ-52" style="edgeStyle=orthogonalEdgeStyle;rounded=0;orthogonalLoop=1;jettySize=auto;html=1;exitX=1;exitY=0.5;exitDx=0;exitDy=0;" edge="1" parent="1" source="BmMyXMfouH3AsFZ2RmhQ-47" target="BmMyXMfouH3AsFZ2RmhQ-51">
          <mxGeometry relative="1" as="geometry" />
        </mxCell>
        <mxCell id="BmMyXMfouH3AsFZ2RmhQ-47" value="Shared Task Queue" style="shape=datastore;whiteSpace=wrap;html=1;" vertex="1" parent="1">
          <mxGeometry x="454" y="138.5" width="90" height="55" as="geometry" />
        </mxCell>
        <mxCell id="BmMyXMfouH3AsFZ2RmhQ-49" value="Add N Tasks to Queue" style="text;html=1;align=center;verticalAlign=middle;whiteSpace=wrap;rounded=0;fontSize=8;" vertex="1" parent="1">
          <mxGeometry x="305" y="-10" width="65" height="20" as="geometry" />
        </mxCell>
        <mxCell id="BmMyXMfouH3AsFZ2RmhQ-108" style="edgeStyle=orthogonalEdgeStyle;rounded=0;orthogonalLoop=1;jettySize=auto;html=1;exitX=0.5;exitY=1;exitDx=0;exitDy=0;entryX=0.5;entryY=0;entryDx=0;entryDy=0;" edge="1" parent="1" source="BmMyXMfouH3AsFZ2RmhQ-51" target="BmMyXMfouH3AsFZ2RmhQ-105">
          <mxGeometry relative="1" as="geometry" />
        </mxCell>
        <mxCell id="BmMyXMfouH3AsFZ2RmhQ-51" value="Fetch Tasks" style="rounded=1;whiteSpace=wrap;html=1;" vertex="1" parent="1">
          <mxGeometry x="660" y="108.5" width="80" height="30" as="geometry" />
        </mxCell>
        <mxCell id="BmMyXMfouH3AsFZ2RmhQ-66" style="edgeStyle=orthogonalEdgeStyle;rounded=0;orthogonalLoop=1;jettySize=auto;html=1;exitX=0;exitY=0.75;exitDx=0;exitDy=0;entryX=0.5;entryY=0;entryDx=0;entryDy=0;" edge="1" parent="1" source="BmMyXMfouH3AsFZ2RmhQ-62" target="BmMyXMfouH3AsFZ2RmhQ-63">
          <mxGeometry relative="1" as="geometry" />
        </mxCell>
        <mxCell id="BmMyXMfouH3AsFZ2RmhQ-67" style="edgeStyle=orthogonalEdgeStyle;rounded=0;orthogonalLoop=1;jettySize=auto;html=1;exitX=1;exitY=0.75;exitDx=0;exitDy=0;entryX=0.5;entryY=0;entryDx=0;entryDy=0;" edge="1" parent="1" source="BmMyXMfouH3AsFZ2RmhQ-62" target="BmMyXMfouH3AsFZ2RmhQ-64">
          <mxGeometry relative="1" as="geometry" />
        </mxCell>
        <mxCell id="BmMyXMfouH3AsFZ2RmhQ-62" value="Monitor" style="html=1;dashed=0;whiteSpace=wrap;" vertex="1" parent="1">
          <mxGeometry x="885" y="87.5" width="70" height="25" as="geometry" />
        </mxCell>
        <mxCell id="BmMyXMfouH3AsFZ2RmhQ-63" value="&lt;font style=&quot;font-size: 8px;&quot;&gt;Log queue size and thread pool stat&lt;/font&gt;" style="html=1;dashed=0;whiteSpace=wrap;" vertex="1" parent="1">
          <mxGeometry x="820" y="136" width="70" height="54" as="geometry" />
        </mxCell>
        <mxCell id="BmMyXMfouH3AsFZ2RmhQ-64" value="Detect stalled threads" style="html=1;dashed=0;whiteSpace=wrap;" vertex="1" parent="1">
          <mxGeometry x="942" y="136" width="80" height="44" as="geometry" />
        </mxCell>
        <mxCell id="BmMyXMfouH3AsFZ2RmhQ-86" value="" style="rhombus;whiteSpace=wrap;html=1;" vertex="1" parent="1">
          <mxGeometry x="376.5" y="146" width="40" height="40" as="geometry" />
        </mxCell>
        <mxCell id="BmMyXMfouH3AsFZ2RmhQ-87" style="edgeStyle=orthogonalEdgeStyle;rounded=0;orthogonalLoop=1;jettySize=auto;html=1;entryX=0.393;entryY=0.997;entryDx=0;entryDy=0;entryPerimeter=0;exitX=0.5;exitY=1;exitDx=0;exitDy=0;" edge="1" parent="1" source="BmMyXMfouH3AsFZ2RmhQ-86" target="BmMyXMfouH3AsFZ2RmhQ-47">
          <mxGeometry relative="1" as="geometry" />
        </mxCell>
        <mxCell id="BmMyXMfouH3AsFZ2RmhQ-88" style="edgeStyle=orthogonalEdgeStyle;rounded=0;orthogonalLoop=1;jettySize=auto;html=1;entryX=0.163;entryY=0.015;entryDx=0;entryDy=0;entryPerimeter=0;exitX=0.5;exitY=0;exitDx=0;exitDy=0;" edge="1" parent="1" source="BmMyXMfouH3AsFZ2RmhQ-86" target="BmMyXMfouH3AsFZ2RmhQ-47">
          <mxGeometry relative="1" as="geometry" />
        </mxCell>
        <mxCell id="BmMyXMfouH3AsFZ2RmhQ-89" value="High Priority Tasks" style="text;html=1;align=center;verticalAlign=middle;whiteSpace=wrap;rounded=0;fontSize=9;" vertex="1" parent="1">
          <mxGeometry x="393.25" y="115" width="60" height="30" as="geometry" />
        </mxCell>
        <mxCell id="BmMyXMfouH3AsFZ2RmhQ-90" value="Low Priority Tasks" style="text;html=1;align=center;verticalAlign=middle;whiteSpace=wrap;rounded=0;fontSize=9;" vertex="1" parent="1">
          <mxGeometry x="394" y="174" width="60" height="30" as="geometry" />
        </mxCell>
        <mxCell id="BmMyXMfouH3AsFZ2RmhQ-91" value="Update Task Status to SUBMITTED" style="text;html=1;align=center;verticalAlign=middle;whiteSpace=wrap;rounded=0;fontSize=9;" vertex="1" parent="1">
          <mxGeometry x="500" y="192.5" width="80" height="32.5" as="geometry" />
        </mxCell>
        <mxCell id="BmMyXMfouH3AsFZ2RmhQ-95" style="edgeStyle=orthogonalEdgeStyle;rounded=0;orthogonalLoop=1;jettySize=auto;html=1;entryX=0;entryY=0.5;entryDx=0;entryDy=0;" edge="1" parent="1" source="BmMyXMfouH3AsFZ2RmhQ-93" target="BmMyXMfouH3AsFZ2RmhQ-86">
          <mxGeometry relative="1" as="geometry" />
        </mxCell>
        <mxCell id="BmMyXMfouH3AsFZ2RmhQ-98" style="edgeStyle=orthogonalEdgeStyle;rounded=0;orthogonalLoop=1;jettySize=auto;html=1;exitX=0.5;exitY=1;exitDx=0;exitDy=0;entryX=0.5;entryY=0;entryDx=0;entryDy=0;" edge="1" parent="1" source="BmMyXMfouH3AsFZ2RmhQ-93" target="BmMyXMfouH3AsFZ2RmhQ-97">
          <mxGeometry relative="1" as="geometry" />
        </mxCell>
        <mxCell id="BmMyXMfouH3AsFZ2RmhQ-93" value="Queue Full?" style="rhombus;whiteSpace=wrap;html=1;fontSize=9;" vertex="1" parent="1">
          <mxGeometry x="260" y="225" width="50" height="45" as="geometry" />
        </mxCell>
        <mxCell id="BmMyXMfouH3AsFZ2RmhQ-96" value="No" style="text;html=1;align=center;verticalAlign=middle;whiteSpace=wrap;rounded=0;fontSize=9;" vertex="1" parent="1">
          <mxGeometry x="301" y="227" width="60" height="30" as="geometry" />
        </mxCell>
        <mxCell id="BmMyXMfouH3AsFZ2RmhQ-97" value="Block" style="rounded=1;whiteSpace=wrap;html=1;" vertex="1" parent="1">
          <mxGeometry x="253.75" y="310" width="62.5" height="20" as="geometry" />
        </mxCell>
        <mxCell id="BmMyXMfouH3AsFZ2RmhQ-99" style="edgeStyle=orthogonalEdgeStyle;rounded=0;orthogonalLoop=1;jettySize=auto;html=1;exitX=0;exitY=0.5;exitDx=0;exitDy=0;entryX=0.01;entryY=0.883;entryDx=0;entryDy=0;entryPerimeter=0;" edge="1" parent="1" source="BmMyXMfouH3AsFZ2RmhQ-97" target="BmMyXMfouH3AsFZ2RmhQ-45">
          <mxGeometry relative="1" as="geometry" />
        </mxCell>
        <mxCell id="BmMyXMfouH3AsFZ2RmhQ-100" value="Loop/Wait" style="text;html=1;align=center;verticalAlign=middle;whiteSpace=wrap;rounded=0;fontSize=10;" vertex="1" parent="1">
          <mxGeometry x="170" y="225" width="60" height="30" as="geometry" />
        </mxCell>
        <mxCell id="BmMyXMfouH3AsFZ2RmhQ-101" value="Yes" style="text;html=1;align=center;verticalAlign=middle;whiteSpace=wrap;rounded=0;fontSize=10;" vertex="1" parent="1">
          <mxGeometry x="267" y="270" width="60" height="30" as="geometry" />
        </mxCell>
        <mxCell id="BmMyXMfouH3AsFZ2RmhQ-103" style="edgeStyle=orthogonalEdgeStyle;rounded=0;orthogonalLoop=1;jettySize=auto;html=1;exitX=0.5;exitY=1;exitDx=0;exitDy=0;entryX=0.5;entryY=0;entryDx=0;entryDy=0;" edge="1" parent="1" source="BmMyXMfouH3AsFZ2RmhQ-102" target="BmMyXMfouH3AsFZ2RmhQ-45">
          <mxGeometry relative="1" as="geometry" />
        </mxCell>
        <mxCell id="BmMyXMfouH3AsFZ2RmhQ-102" value="Wait 5 seconds" style="rounded=1;whiteSpace=wrap;html=1;" vertex="1" parent="1">
          <mxGeometry x="250" y="87.5" width="70" height="30" as="geometry" />
        </mxCell>
        <mxCell id="BmMyXMfouH3AsFZ2RmhQ-107" style="edgeStyle=orthogonalEdgeStyle;rounded=0;orthogonalLoop=1;jettySize=auto;html=1;exitX=0.5;exitY=1;exitDx=0;exitDy=0;entryX=0.5;entryY=0;entryDx=0;entryDy=0;" edge="1" parent="1" source="BmMyXMfouH3AsFZ2RmhQ-105" target="BmMyXMfouH3AsFZ2RmhQ-106">
          <mxGeometry relative="1" as="geometry" />
        </mxCell>
        <mxCell id="BmMyXMfouH3AsFZ2RmhQ-105" value="TaskStatus&lt;div&gt;&lt;span style=&quot;background-color: transparent; color: light-dark(rgb(0, 0, 0), rgb(255, 255, 255));&quot;&gt;PROCESSING&lt;/span&gt;&lt;/div&gt;" style="rounded=1;whiteSpace=wrap;html=1;fontSize=9;" vertex="1" parent="1">
          <mxGeometry x="650" y="166.5" width="90" height="23.5" as="geometry" />
        </mxCell>
        <mxCell id="BmMyXMfouH3AsFZ2RmhQ-110" style="edgeStyle=orthogonalEdgeStyle;rounded=0;orthogonalLoop=1;jettySize=auto;html=1;exitX=0.5;exitY=1;exitDx=0;exitDy=0;entryX=0.5;entryY=0;entryDx=0;entryDy=0;" edge="1" parent="1" source="BmMyXMfouH3AsFZ2RmhQ-106" target="BmMyXMfouH3AsFZ2RmhQ-109">
          <mxGeometry relative="1" as="geometry" />
        </mxCell>
        <mxCell id="BmMyXMfouH3AsFZ2RmhQ-106" value="Delay" style="rounded=1;whiteSpace=wrap;html=1;" vertex="1" parent="1">
          <mxGeometry x="657.5" y="210" width="80" height="30" as="geometry" />
        </mxCell>
        <mxCell id="BmMyXMfouH3AsFZ2RmhQ-114" style="edgeStyle=orthogonalEdgeStyle;rounded=0;orthogonalLoop=1;jettySize=auto;html=1;exitX=0.5;exitY=1;exitDx=0;exitDy=0;entryX=0.5;entryY=0;entryDx=0;entryDy=0;" edge="1" parent="1" source="BmMyXMfouH3AsFZ2RmhQ-109">
          <mxGeometry relative="1" as="geometry">
            <mxPoint x="697.4999999999999" y="330" as="targetPoint" />
          </mxGeometry>
        </mxCell>
        <mxCell id="BmMyXMfouH3AsFZ2RmhQ-109" value="Log Task Processing" style="rounded=1;whiteSpace=wrap;html=1;" vertex="1" parent="1">
          <mxGeometry x="657.5" y="270" width="80" height="30" as="geometry" />
        </mxCell>
        <mxCell id="BmMyXMfouH3AsFZ2RmhQ-116" style="edgeStyle=orthogonalEdgeStyle;rounded=0;orthogonalLoop=1;jettySize=auto;html=1;exitX=1;exitY=0.5;exitDx=0;exitDy=0;entryX=1;entryY=0.25;entryDx=0;entryDy=0;" edge="1" parent="1" source="BmMyXMfouH3AsFZ2RmhQ-115" target="BmMyXMfouH3AsFZ2RmhQ-105">
          <mxGeometry relative="1" as="geometry" />
        </mxCell>
        <mxCell id="BmMyXMfouH3AsFZ2RmhQ-121" style="edgeStyle=orthogonalEdgeStyle;rounded=0;orthogonalLoop=1;jettySize=auto;html=1;exitX=0.5;exitY=1;exitDx=0;exitDy=0;entryX=0.5;entryY=0;entryDx=0;entryDy=0;" edge="1" parent="1" source="BmMyXMfouH3AsFZ2RmhQ-115" target="BmMyXMfouH3AsFZ2RmhQ-120">
          <mxGeometry relative="1" as="geometry" />
        </mxCell>
        <mxCell id="BmMyXMfouH3AsFZ2RmhQ-115" value="FAILED?" style="rhombus;whiteSpace=wrap;html=1;" vertex="1" parent="1">
          <mxGeometry x="666.25" y="330" width="62.5" height="60" as="geometry" />
        </mxCell>
        <mxCell id="BmMyXMfouH3AsFZ2RmhQ-117" value="Retry &amp;lt; 3" style="text;html=1;align=center;verticalAlign=middle;whiteSpace=wrap;rounded=0;" vertex="1" parent="1">
          <mxGeometry x="750" y="232.5" width="60" height="30" as="geometry" />
        </mxCell>
        <mxCell id="BmMyXMfouH3AsFZ2RmhQ-118" value="Yes" style="text;html=1;align=center;verticalAlign=middle;whiteSpace=wrap;rounded=0;" vertex="1" parent="1">
          <mxGeometry x="707" y="329" width="60" height="30" as="geometry" />
        </mxCell>
        <mxCell id="BmMyXMfouH3AsFZ2RmhQ-120" value="TaskStatus&lt;div&gt;&lt;span style=&quot;background-color: transparent; color: light-dark(rgb(0, 0, 0), rgb(255, 255, 255));&quot;&gt;COMPLETE&lt;/span&gt;&lt;/div&gt;" style="rounded=1;whiteSpace=wrap;html=1;fontSize=9;" vertex="1" parent="1">
          <mxGeometry x="652.5" y="420" width="90" height="23.5" as="geometry" />
        </mxCell>
        <mxCell id="BmMyXMfouH3AsFZ2RmhQ-125" style="edgeStyle=orthogonalEdgeStyle;rounded=0;orthogonalLoop=1;jettySize=auto;html=1;exitX=1;exitY=0.5;exitDx=0;exitDy=0;entryX=1;entryY=0.5;entryDx=0;entryDy=0;" edge="1" parent="1" source="BmMyXMfouH3AsFZ2RmhQ-123" target="BmMyXMfouH3AsFZ2RmhQ-63">
          <mxGeometry relative="1" as="geometry" />
        </mxCell>
        <mxCell id="BmMyXMfouH3AsFZ2RmhQ-123" value="Export to JSON" style="rounded=0;whiteSpace=wrap;html=1;" vertex="1" parent="1">
          <mxGeometry x="820" y="210" width="70" height="36" as="geometry" />
        </mxCell>
        <mxCell id="BmMyXMfouH3AsFZ2RmhQ-124" style="edgeStyle=orthogonalEdgeStyle;rounded=0;orthogonalLoop=1;jettySize=auto;html=1;exitX=0.5;exitY=1;exitDx=0;exitDy=0;entryX=0.504;entryY=0.19;entryDx=0;entryDy=0;entryPerimeter=0;" edge="1" parent="1" source="BmMyXMfouH3AsFZ2RmhQ-63" target="BmMyXMfouH3AsFZ2RmhQ-123">
          <mxGeometry relative="1" as="geometry" />
        </mxCell>
        <mxCell id="BmMyXMfouH3AsFZ2RmhQ-126" value="wait 1 minute" style="text;html=1;align=center;verticalAlign=middle;whiteSpace=wrap;rounded=0;" vertex="1" parent="1">
          <mxGeometry x="882" y="230" width="60" height="30" as="geometry" />
        </mxCell>
        <mxCell id="BmMyXMfouH3AsFZ2RmhQ-127" value="Detect stuck Tasks" style="html=1;dashed=0;whiteSpace=wrap;" vertex="1" parent="1">
          <mxGeometry x="942" y="196" width="80" height="44" as="geometry" />
        </mxCell>
        <mxCell id="BmMyXMfouH3AsFZ2RmhQ-128" style="edgeStyle=orthogonalEdgeStyle;rounded=0;orthogonalLoop=1;jettySize=auto;html=1;exitX=0.5;exitY=1;exitDx=0;exitDy=0;entryX=0.507;entryY=0.051;entryDx=0;entryDy=0;entryPerimeter=0;" edge="1" parent="1" source="BmMyXMfouH3AsFZ2RmhQ-64" target="BmMyXMfouH3AsFZ2RmhQ-127">
          <mxGeometry relative="1" as="geometry" />
        </mxCell>
      </root>
    </mxGraphModel>
  </diagram>
</mxfile>
